<svg xmlns="http://www.w3.org/2000/svg" width="36" height="15" viewBox="0 0 36 15" fill="none">
  <path d="M36 10.7801V11.4514C36 12.5128 35.6615 13.3696 34.9843 14.0217C34.3071 14.6739 33.3974 15 32.2551 15C31.1197 15 30.21 14.6739 29.526 14.0217C28.8488 13.3696 28.5103 12.5128 28.5103 11.4514V3.54859C28.5103 2.48082 28.8488 1.62404 29.526 0.978261C30.21 0.326087 31.1197 0 32.2551 0C33.3974 0 34.3071 0.326087 34.9843 0.978261C35.6615 1.62404 36 2.48082 36 3.54859V4.21995H33.6402V3.54859C33.6402 3.14578 33.5171 2.82289 33.2709 2.57992C33.0246 2.33056 32.6861 2.20588 32.2551 2.20588C31.8242 2.20588 31.4856 2.33056 31.2394 2.57992C30.9932 2.82289 30.87 3.14578 30.87 3.54859V11.4514C30.87 11.8542 30.9932 12.1803 31.2394 12.4297C31.4856 12.6726 31.8242 12.7941 32.2551 12.7941C32.6861 12.7941 33.0246 12.6726 33.2709 12.4297C33.5171 12.1803 33.6402 11.8542 33.6402 11.4514V10.7801H36Z" fill="#37474F"/>
  <path d="M22.3587 15C21.2232 15 20.3135 14.6739 19.6295 14.0217C18.9523 13.3696 18.6138 12.5128 18.6138 11.4514V10.7801H20.9736V11.4514C20.9736 11.8542 21.0967 12.1803 21.3429 12.4297C21.5892 12.6726 21.9277 12.7941 22.3587 12.7941C22.7896 12.7941 23.1282 12.6726 23.3744 12.4297C23.6206 12.1803 23.7438 11.8542 23.7438 11.4514V10.1087C23.7438 9.87852 23.7335 9.69949 23.713 9.57161C23.6925 9.43734 23.6412 9.32864 23.5591 9.24552C23.4838 9.1624 23.3505 9.08887 23.1589 9.02494C22.9743 8.9546 22.7075 8.86829 22.3587 8.76598C21.4216 8.49105 20.6965 8.26087 20.1835 8.07545C19.6705 7.89003 19.3012 7.68862 19.0755 7.47123C18.8566 7.25384 18.7232 6.97251 18.6753 6.62724C18.6343 6.27558 18.6138 5.80563 18.6138 5.21739V3.54859C18.6138 2.48082 18.9523 1.62404 19.6295 0.978261C20.3135 0.326087 21.2232 0 22.3587 0C23.5009 0 24.4107 0.326087 25.0878 0.978261C25.765 1.62404 26.1036 2.48082 26.1036 3.54859V4.21995H23.7438V3.54859C23.7438 3.14578 23.6206 2.82289 23.3744 2.57992C23.1282 2.33056 22.7896 2.20588 22.3587 2.20588C21.9277 2.20588 21.5892 2.33056 21.3429 2.57992C21.0967 2.82289 20.9736 3.14578 20.9736 3.54859V5.21739C20.9736 5.44757 20.9804 5.6298 20.9941 5.76407C21.0146 5.89194 21.0625 5.99744 21.1377 6.08056C21.2198 6.15729 21.3566 6.23082 21.5481 6.30115C21.7396 6.37148 22.0098 6.4578 22.3587 6.5601C23.2957 6.82864 24.0208 7.05882 24.5338 7.25064C25.0468 7.43606 25.4127 7.63747 25.6316 7.85486C25.8573 8.07225 25.9907 8.35358 26.0317 8.69885C26.0796 9.04412 26.1036 9.51407 26.1036 10.1087V11.4514C26.1036 12.5128 25.765 13.3696 25.0878 14.0217C24.4107 14.6739 23.5009 15 22.3587 15Z" fill="#37474F"/>
  <path d="M16.65 0.306885V2.51277H12.6999V6.10932H16.0959V8.3152H12.6999V12.4872H16.65V14.6931H10.3401V0.306885H16.65Z" fill="#37474F"/>
  <path d="M0 14.6931V0.306885H3.69359C4.83587 0.306885 5.74559 0.632972 6.42275 1.28515C7.0999 1.93093 7.43848 2.7877 7.43848 3.85548V11.1445C7.43848 12.2059 7.0999 13.0626 6.42275 13.7148C5.74559 14.367 4.83587 14.6931 3.69359 14.6931H0ZM2.35979 12.4872H3.69359C4.12451 12.4872 4.46309 12.3657 4.70933 12.1227C4.95557 11.8734 5.07869 11.5473 5.07869 11.1445V3.85548C5.07869 3.45267 4.95557 3.12978 4.70933 2.88681C4.46309 2.63745 4.12451 2.51277 3.69359 2.51277H2.35979V12.4872Z" fill="#37474F"/>
</svg>