<svg xmlns="http://www.w3.org/2000/svg" width="38" height="18" viewBox="0 0 38 18" fill="none">
  <path d="M37.4802 12.716V13.451C37.4802 14.613 37.1337 15.551 36.4407 16.265C35.7477 16.979 34.8167 17.336 33.6477 17.336C32.4857 17.336 31.5547 16.979 30.8547 16.265C30.1617 15.551 29.8152 14.613 29.8152 13.451V4.799C29.8152 3.63 30.1617 2.692 30.8547 1.985C31.5547 1.271 32.4857 0.914001 33.6477 0.914001C34.8167 0.914001 35.7477 1.271 36.4407 1.985C37.1337 2.692 37.4802 3.63 37.4802 4.799V5.534H35.0652V4.799C35.0652 4.358 34.9392 4.0045 34.6872 3.7385C34.4352 3.4655 34.0887 3.329 33.6477 3.329C33.2067 3.329 32.8602 3.4655 32.6082 3.7385C32.3562 4.0045 32.2302 4.358 32.2302 4.799V13.451C32.2302 13.892 32.3562 14.249 32.6082 14.522C32.8602 14.788 33.2067 14.921 33.6477 14.921C34.0887 14.921 34.4352 14.788 34.6872 14.522C34.9392 14.249 35.0652 13.892 35.0652 13.451V12.716H37.4802Z" fill="black"/>
  <path d="M23.52 17.336C22.358 17.336 21.427 16.979 20.727 16.265C20.034 15.551 19.6875 14.613 19.6875 13.451V12.716H22.1025V13.451C22.1025 13.892 22.2285 14.249 22.4805 14.522C22.7325 14.788 23.079 14.921 23.52 14.921C23.961 14.921 24.3075 14.788 24.5595 14.522C24.8115 14.249 24.9375 13.892 24.9375 13.451V11.981C24.9375 11.729 24.927 11.533 24.906 11.393C24.885 11.246 24.8325 11.127 24.7485 11.036C24.6715 10.945 24.535 10.8645 24.339 10.7945C24.15 10.7175 23.877 10.623 23.52 10.511C22.561 10.21 21.819 9.958 21.294 9.755C20.769 9.552 20.391 9.3315 20.16 9.0935C19.936 8.8555 19.7995 8.5475 19.7505 8.1695C19.7085 7.7845 19.6875 7.27 19.6875 6.626V4.799C19.6875 3.63 20.034 2.692 20.727 1.985C21.427 1.271 22.358 0.914001 23.52 0.914001C24.689 0.914001 25.62 1.271 26.313 1.985C27.006 2.692 27.3525 3.63 27.3525 4.799V5.534H24.9375V4.799C24.9375 4.358 24.8115 4.0045 24.5595 3.7385C24.3075 3.4655 23.961 3.329 23.52 3.329C23.079 3.329 22.7325 3.4655 22.4805 3.7385C22.2285 4.0045 22.1025 4.358 22.1025 4.799V6.626C22.1025 6.878 22.1095 7.0775 22.1235 7.2245C22.1445 7.3645 22.1935 7.48 22.2705 7.571C22.3545 7.655 22.4945 7.7355 22.6905 7.8125C22.8865 7.8895 23.163 7.984 23.52 8.096C24.479 8.39 25.221 8.642 25.746 8.852C26.271 9.055 26.6455 9.2755 26.8695 9.5135C27.1005 9.7515 27.237 10.0595 27.279 10.4375C27.328 10.8155 27.3525 11.33 27.3525 11.981V13.451C27.3525 14.613 27.006 15.551 26.313 16.265C25.62 16.979 24.689 17.336 23.52 17.336Z" fill="black"/>
  <path d="M17.6775 1.25V3.665H13.635V7.6025H17.1105V10.0175H13.635V14.585H17.6775V17H11.22V1.25H17.6775Z" fill="black"/>
  <path d="M0.637939 17V1.25H4.41794C5.58694 1.25 6.51794 1.607 7.21094 2.321C7.90394 3.028 8.25044 3.966 8.25044 5.135V13.115C8.25044 14.277 7.90394 15.215 7.21094 15.929C6.51794 16.643 5.58694 17 4.41794 17H0.637939ZM3.05294 14.585H4.41794C4.85894 14.585 5.20544 14.452 5.45744 14.186C5.70944 13.913 5.83544 13.556 5.83544 13.115V5.135C5.83544 4.694 5.70944 4.3405 5.45744 4.0745C5.20544 3.8015 4.85894 3.665 4.41794 3.665H3.05294V14.585Z" fill="black"/>
</svg>